<?xml version='1.0' encoding='utf-8'?>
<svg xmlns="http://www.w3.org/2000/svg" version="1.1" width="1080px" height="2132px" viewBox="0 0 1080 2132"> <g id="layer1"> <g style="fill:rgb(1,33,50); fill-opacity:1.0; stroke-linejoin: miter"> <path d="M-219.001,490.20657C-219.21117,490.20657,-219.41272,490.29004,-219.56133,490.43866C-219.70993,490.58728,-219.79341,490.78882,-219.79341,490.999L-219.7924,1629.0C-219.7924,1629.4376,-219.43764,1629.7924,-219.0,1629.7924L1299.001,1629.7933C1299.2112,1629.7933,1299.4127,1629.7098,1299.5613,1629.5613C1299.7098,1629.4127,1299.7933,1629.2112,1299.7933,1629.001L1299.7924,491.0C1299.7924,490.56238,1299.4376,490.20758,1299.0,490.20758L-219.001,490.20657 Z"/> </g> <g style="fill:rgb(255,255,255); fill-opacity:1.0; stroke-linejoin: miter"> <path d="M187.6124,1283.7919L195.85455,1282.5975L204.09546,1281.4015Q201.52455,1283.619,198.95308,1285.8365Q200.15273,1288.9862,201.35269,1292.1359L187.6124,1283.7919 Z"/> </g> <g style="fill:rgb(255,255,255); fill-opacity:1.0; stroke-linejoin: miter"> <path d="M194.45958,1279.0786L194.65048,1278.1082L194.84126,1277.1372Q196.86235,1281.629,198.8839,1286.1207Q195.33766,1289.3146,191.79149,1292.5089L194.45958,1279.0786 Z"/> </g> <g style="fill:rgb(255,255,255); fill-opacity:1.0; stroke-linejoin: miter"> <path d="M861.0156,691.0386L869.2572,689.84326L877.49915,688.649Q874.9278,690.8659,872.35657,693.0828Q873.5561,696.2328,874.7555,699.3819L861.0156,691.0386 Z"/> </g> <g style="fill:rgb(255,255,255); fill-opacity:1.0; stroke-linejoin: miter"> <path d="M867.8633,686.32526L868.0539,685.3543L868.24457,684.38385Q870.26587,688.8754,872.28705,693.3671Q868.741,696.5611,865.19495,699.75555L867.8633,686.32526 Z"/> </g> <g style="fill:rgb(255,255,255); fill-opacity:1.0; stroke-linejoin: miter"> <path d="M898.7887,748.4129L886.6463,750.1732L874.5036,751.93353Q878.2921,748.6672,882.08,745.4002Q880.3128,740.76056,878.5454,736.1201L898.7887,748.4129 Z"/> </g> <g style="fill:rgb(255,255,255); fill-opacity:1.0; stroke-linejoin: miter"> <path d="M888.7004,755.3565L888.4192,756.78723L888.1382,758.2171Q885.16034,751.5998,882.18243,744.98206Q887.40686,740.27606,892.6314,735.5702L888.7004,755.3565 Z"/> </g> <g style="fill:rgb(255,255,255); fill-opacity:1.0; stroke-linejoin: miter"> <path d="M335.4994,861.89325L326.02353,854.09985L316.54706,846.3067Q321.51263,846.9085,326.4784,847.5108Q328.72015,843.0796,330.96115,838.64905L335.4994,861.89325 Z"/> </g> <g style="fill:rgb(255,255,255); fill-opacity:1.0; stroke-linejoin: miter"> <path d="M323.57352,859.1081L322.327,859.8631L321.0796,860.6184Q323.96832,853.9616,326.85706,847.30493Q333.85388,847.99976,340.85135,848.6947L323.57352,859.1081 Z"/> </g> <g style="fill:rgb(255,255,255); fill-opacity:1.0; stroke-linejoin: miter"> <path d="M211.01483,1314.0382L203.36319,1317.3258L195.7119,1320.6129Q197.62129,1317.805,199.53114,1314.9987Q197.55746,1312.2672,195.5835,1309.5348L211.01483,1314.0382 Z"/> </g> <g style="fill:rgb(255,255,255); fill-opacity:1.0; stroke-linejoin: miter"> <path d="M205.62047,1320.3624L205.68744,1321.3502L205.75461,1322.337Q202.63982,1318.5214,199.52484,1314.7057Q202.12349,1310.7028,204.72221,1306.7001L205.62047,1320.3624 Z"/> </g> <g style="fill:rgb(17,123,189); fill-opacity:1.0; stroke-linejoin: miter"> <path d="M456.0107,1442.0181L456.01102,1442.0198Q456.0099,1442.0181,456.02344,1442.019Q456.0375,1442.019,456.0857,1442.019Q456.1583,1442.019,456.1887,1442.019Q456.23306,1442.019,456.2636,1442.0193L456.29172,1442.0208Q456.31644,1442.0193,456.33127,1442.0193L456.34445,1442.0198Q456.35522,1442.0193,456.3601,1442.0193Q456.36835,1442.0198,456.36685,1442.0198Q456.37366,1442.0198,456.44177,1442.0193Q456.4668,1442.0193,456.5038,1442.0193L456.58588,1442.0208L456.61993,1442.0198Q456.65045,1442.019,456.67,1442.019Q456.72348,1442.019,456.72266,1442.019L456.70865,1442.0205L456.67,1442.019L456.6113,1442.0193L456.53818,1442.019L456.4549,1442.0181L456.12183,1442.0193L456.06357,1442.0181L456.0249,1442.0198L456.0107,1442.019 Z"/> </g> <g style="fill:rgb(255,255,255); fill-opacity:1.0; stroke-linejoin: miter"> <path d="M327.0705,674.89185L314.49695,681.47266L301.92368,688.0535Q307.68845,688.5475,313.45352,689.04126Q314.94244,694.58795,316.43112,700.1344L327.0705,674.89185 Z"/> </g> <g style="fill:rgb(255,255,255); fill-opacity:1.0; stroke-linejoin: miter"> <path d="M312.90894,675.2223L311.67578,674.0722L310.4429,672.9221Q312.13757,681.1426,313.83292,689.3634Q321.9193,690.2321,330.0056,691.10126L312.90894,675.2223 Z"/> </g> <g style="fill:rgb(255,255,255); fill-opacity:1.0; stroke-linejoin: miter"> <path d="M161.75368,1076.6432L158.1557,1090.371L154.55766,1104.0983Q158.80362,1100.1683,163.04944,1096.2379Q168.1533,1098.871,173.25732,1101.5043L161.75368,1076.6432 Z"/> </g> <g style="fill:rgb(255,255,255); fill-opacity:1.0; stroke-linejoin: miter"> <path d="M152.46492,1087.3375L150.78426,1087.4752L149.10379,1087.6129Q156.3236,1091.8937,163.54347,1096.1747Q169.62973,1090.7799,175.71616,1085.3856L152.46492,1087.3375 Z"/> </g> <g style="fill:rgb(255,255,255); fill-opacity:1.0; stroke-linejoin: miter"> <path d="M214.75159,1219.4019L211.15364,1233.1289L207.55559,1246.8574Q211.80153,1242.927,216.04747,1238.9966Q221.15144,1241.6294,226.25511,1244.2627L214.75159,1219.4019 Z"/> </g> <g style="fill:rgb(255,255,255); fill-opacity:1.0; stroke-linejoin: miter"> <path d="M205.46268,1230.096L203.78195,1230.2336L202.10155,1230.3711Q209.32152,1234.6519,216.54141,1238.9326Q222.62796,1233.5383,228.71426,1228.1438L205.46268,1230.096 Z"/> </g> <g style="fill:rgb(255,255,255); fill-opacity:1.0; stroke-linejoin: miter"> <path d="M112.22882,1363.4696L108.630905,1377.1969L105.032875,1390.9247Q109.2786,1386.994,113.524796,1383.0643Q118.628525,1385.6976,123.732346,1388.33L112.22882,1363.4696 Z"/> </g> <g style="fill:rgb(255,255,255); fill-opacity:1.0; stroke-linejoin: miter"> <path d="M102.939804,1374.164L101.2593,1374.3011L99.578804,1374.4391Q106.79864,1378.7198,114.01863,1383.0006Q120.10483,1377.6063,126.191315,1372.2115L102.939804,1374.164 Z"/> </g> <g style="fill:rgb(255,255,255); fill-opacity:1.0; stroke-linejoin: miter"> <path d="M1046.9197,1040.2092L1042.149,1048.577L1037.379,1056.945Q1040.8524,1055.1139,1044.327,1053.2831Q1047.2107,1055.9065,1050.0942,1058.5293L1046.9197,1040.2092 Z"/> </g> <g style="fill:rgb(255,255,255); fill-opacity:1.0; stroke-linejoin: miter"> <path d="M1038.9508,1045.5887L1037.8251,1045.3834L1036.6991,1045.1786Q1040.6805,1049.2533,1044.6617,1053.328Q1049.5999,1050.8606,1054.5383,1048.3931L1038.9508,1045.5887 Z"/> </g> <g style="fill:rgb(255,255,255); fill-opacity:1.0; stroke-linejoin: miter"> <path d="M821.2421,1314.2544L816.47125,1322.6218L811.7008,1330.99Q815.17487,1329.1587,818.64905,1327.3284Q821.53284,1329.9517,824.4165,1332.5748L821.2421,1314.2544 Z"/> </g> <g style="fill:rgb(255,255,255); fill-opacity:1.0; stroke-linejoin: miter"> <path d="M813.2732,1319.6333L812.1473,1319.4285L811.02094,1319.2236Q815.0027,1323.2986,818.9841,1327.374Q823.9222,1324.9062,828.86017,1322.438L813.2732,1319.6333 Z"/> </g> <g style="fill:rgb(255,255,255); fill-opacity:1.0; stroke-linejoin: miter"> <path d="M787.26337,841.5049L782.4928,849.87317L777.7222,858.24146Q781.1966,856.41077,784.67065,854.5792Q787.55444,857.2024,790.4377,859.8252L787.26337,841.5049 Z"/> </g> <g style="fill:rgb(255,255,255); fill-opacity:1.0; stroke-linejoin: miter"> <path d="M779.29456,846.8854L778.1687,846.6799L777.04285,846.47504Q781.0245,850.5496,785.0057,854.62476Q789.9436,852.1567,794.88184,849.6894L779.29456,846.8854 Z"/> </g> <g style="fill:rgb(255,255,255); fill-opacity:1.0; stroke-linejoin: miter"> <path d="M740.7109,830.4058L737.11304,844.13306L733.51495,857.8607Q737.7607,853.93085,742.00665,850.0008Q747.11066,852.63354,752.2148,855.2663L740.7109,830.4058 Z"/> </g> <g style="fill:rgb(255,255,255); fill-opacity:1.0; stroke-linejoin: miter"> <path d="M731.4222,841.0997L729.74146,841.2373L728.0608,841.37494Q735.2811,845.65625,742.50085,849.93695Q748.5874,844.54236,754.6733,839.1474L731.4222,841.0997 Z"/> </g> <g style="fill:rgb(255,255,255); fill-opacity:1.0; stroke-linejoin: miter"> <path d="M223.36807,779.18146L213.96884,781.28766L204.56935,783.39374Q208.26196,784.7301,211.955,786.0666Q211.95677,789.9647,211.95822,793.8629L223.36807,779.18146 Z"/> </g> <g style="fill:rgb(255,255,255); fill-opacity:1.0; stroke-linejoin: miter"> <path d="M214.02522,776.91144L213.41864,775.9405L212.81245,774.96985Q212.4799,780.65717,212.14703,786.3446Q217.29565,788.33527,222.44504,790.3246L214.02522,776.91144 Z"/> </g> <g style="fill:rgb(255,255,255); fill-opacity:1.0; stroke-linejoin: miter"> <path d="M-9.088634,945.7441L-13.859289,954.112L-18.629662,962.4804Q-15.155556,960.6488,-11.681259,958.8179Q-8.797738,961.4412,-5.914218,964.0644L-9.088634,945.7441 Z"/> </g> <g style="fill:rgb(255,255,255); fill-opacity:1.0; stroke-linejoin: miter"> <path d="M-17.05748,951.12354L-18.18334,950.91895L-19.309265,950.71344Q-15.327854,954.7887,-11.346409,958.8633Q-6.4084997,956.3959,-1.470499,953.92847L-17.05748,951.12354 Z"/> </g> <g style="fill:rgb(255,255,255); fill-opacity:1.0; stroke-linejoin: miter"> <path d="M-4.505169,791.8949L-9.275763,800.2628L-14.046168,808.6306Q-10.571966,806.7994,-7.0978603,804.9692Q-4.21418,807.59216,-1.3306255,810.21484L-4.505169,791.8949 Z"/> </g> <g style="fill:rgb(255,255,255); fill-opacity:1.0; stroke-linejoin: miter"> <path d="M-12.473828,797.27423L-13.599753,797.06885L-14.725866,796.86426Q-10.744328,800.939,-6.762725,805.01385Q-1.8248787,802.5467,3.113123,800.07904L-12.473828,797.27423 Z"/> </g> <g style="fill:rgb(255,255,255); fill-opacity:1.0; stroke-linejoin: miter"> <path d="M937.9141,896.0337L944.9424,883.70496L951.97064,871.3761Q946.85254,874.07355,941.7342,876.7714Q937.4858,872.90674,933.237,869.04205L937.9141,896.0337 Z"/> </g> <g style="fill:rgb(255,255,255); fill-opacity:1.0; stroke-linejoin: miter"> <path d="M949.6542,888.1077L951.3135,888.4095L952.9722,888.7114Q947.10645,882.7086,941.24023,876.70483Q933.9653,880.3395,926.6902,883.97565L949.6542,888.1077 Z"/> </g> <g style="fill:rgb(255,255,255); fill-opacity:1.0; stroke-linejoin: miter"> <path d="M1074.2305,783.40985L1081.2585,771.0811L1088.2874,758.7526Q1083.169,761.4499,1078.0503,764.1476Q1073.8015,760.2835,1069.5532,756.41907L1074.2305,783.40985 Z"/> </g> <g style="fill:rgb(255,255,255); fill-opacity:1.0; stroke-linejoin: miter"> <path d="M1085.9705,775.48395L1087.6296,775.786L1089.2881,776.088Q1083.4229,770.0851,1077.5569,764.081Q1070.2815,767.7167,1063.0068,771.3517L1085.9705,775.48395 Z"/> </g> <g style="fill:rgb(255,255,255); fill-opacity:1.0; stroke-linejoin: miter"> <path d="M201.92113,757.91125L211.54501,758.31006L221.16927,758.7085Q217.94846,756.4619,214.72714,754.2155Q215.73457,750.4493,216.74155,746.68396L201.92113,757.91125 Z"/> </g> <g style="fill:rgb(255,255,255); fill-opacity:1.0; stroke-linejoin: miter"> <path d="M210.35785,762.52264L210.69215,763.6175L211.02686,764.7119Q212.8202,759.30475,214.61375,753.89667Q210.1554,750.6419,205.69711,747.38666L210.35785,762.52264 Z"/> </g> <g style="fill:rgb(255,255,255); fill-opacity:1.0; stroke-linejoin: miter"> <path d="M351.59927,841.3524L361.2235,841.75073L370.84772,842.1488Q367.62653,839.90234,364.40567,837.6558Q365.4126,833.8904,366.42,830.1247L351.59927,841.3524 Z"/> </g> <g style="fill:rgb(255,255,255); fill-opacity:1.0; stroke-linejoin: miter"> <path d="M360.03598,845.9637L360.37048,847.05774L360.70486,848.1526Q362.49866,842.74475,364.29208,837.3377Q359.83353,834.0827,355.37518,830.82764L360.03598,845.9637 Z"/> </g> <g style="fill:rgb(255,255,255); fill-opacity:1.0; stroke-linejoin: miter"> <path d="M208.61986,945.6476L215.3935,938.7993L222.1672,931.9508Q218.33755,932.8204,214.50804,933.6898Q212.40143,930.4096,210.29489,927.13L208.61986,945.6476 Z"/> </g> <g style="fill:rgb(255,255,255); fill-opacity:1.0; stroke-linejoin: miter"> <path d="M217.70941,942.51306L218.74384,943.0028L219.77838,943.492Q216.98724,938.52576,214.19598,933.55927Q208.78787,934.6649,203.37941,935.7703L217.70941,942.51306 Z"/> </g> <g style="fill:rgb(255,255,255); fill-opacity:1.0; stroke-linejoin: miter"> <path d="M62.245956,1131.8094L69.01991,1124.9615L75.793785,1118.1132Q71.963844,1118.9823,68.13437,1119.8522Q66.02779,1116.5717,63.92137,1113.2921L62.245956,1131.8094 Z"/> </g> <g style="fill:rgb(255,255,255); fill-opacity:1.0; stroke-linejoin: miter"> <path d="M71.335625,1128.6761L72.37016,1129.1652L73.40458,1129.6549Q70.61344,1124.6881,67.82241,1119.7218Q62.414017,1120.8273,57.005577,1121.932L71.335625,1128.6761 Z"/> </g> <g style="fill:rgb(255,255,255); fill-opacity:1.0; stroke-linejoin: miter"> <path d="M175.42508,1218.0239L182.19897,1211.1763L188.97249,1204.3276Q185.14291,1205.1968,181.3132,1206.0664Q179.20667,1202.7864,177.10025,1199.5068L175.42508,1218.0239 Z"/> </g> <g style="fill:rgb(255,255,255); fill-opacity:1.0; stroke-linejoin: miter"> <path d="M184.51465,1214.8904L185.54912,1215.3796L186.58372,1215.8689Q183.79248,1210.9023,181.00128,1205.9358Q175.59302,1207.0413,170.18457,1208.1465L184.51465,1214.8904 Z"/> </g> <g style="fill:rgb(255,255,255); fill-opacity:1.0; stroke-linejoin: miter"> <path d="M104.33953,1154.5797L111.36795,1142.2506L118.39638,1129.9215Q113.277725,1132.619,108.15931,1135.3175Q103.910866,1131.4528,99.66263,1127.5883L104.33953,1154.5797 Z"/> </g> <g style="fill:rgb(255,255,255); fill-opacity:1.0; stroke-linejoin: miter"> <path d="M116.079926,1146.6532L117.7386,1146.9554L119.39769,1147.257Q113.53154,1141.2538,107.66562,1135.2506Q100.3906,1138.8864,93.11547,1142.5214L116.079926,1146.6532 Z"/> </g> <g style="fill:rgb(255,255,255); fill-opacity:1.0; stroke-linejoin: miter"> <path d="M1039.0525,1365.7212L1045.8259,1358.8728L1052.5996,1352.0244Q1048.77,1352.8938,1044.9404,1353.7632Q1042.8342,1350.4836,1040.7278,1347.2034L1039.0525,1365.7212 Z"/> </g> <g style="fill:rgb(255,255,255); fill-opacity:1.0; stroke-linejoin: miter"> <path d="M1048.1421,1362.5872L1049.1763,1363.0764L1050.2109,1363.5657Q1047.4199,1358.5996,1044.6287,1353.633Q1039.2205,1354.7385,1033.812,1355.844L1048.1421,1362.5872 Z"/> </g> <g style="fill:rgb(255,255,255); fill-opacity:1.0; stroke-linejoin: miter"> <path d="M147.88869,1028.4589L134.20099,1032.2064L120.51343,1035.9545Q126.0401,1037.6664,131.56696,1039.3783Q131.83862,1045.1156,132.11024,1050.8517L147.88869,1028.4589 Z"/> </g> <g style="fill:rgb(255,255,255); fill-opacity:1.0; stroke-linejoin: miter"> <path d="M133.98259,1025.7614L133.02307,1024.3749L132.06357,1022.98883Q131.96632,1031.382,131.86908,1039.7743Q139.58366,1042.348,147.29874,1044.922L133.98259,1025.7614 Z"/> </g> <g style="fill:rgb(255,255,255); fill-opacity:1.0; stroke-linejoin: miter"> <path d="M269.06485,1327.8451L255.3771,1331.5934L241.68948,1335.3417Q247.21606,1337.0529,252.74301,1338.7648Q253.01459,1344.5016,253.28607,1350.2379L269.06485,1327.8451 Z"/> </g> <g style="fill:rgb(255,255,255); fill-opacity:1.0; stroke-linejoin: miter"> <path d="M255.15854,1325.1478L254.199,1323.7616L253.2395,1322.3749Q253.14227,1330.768,253.0451,1339.161Q260.75995,1341.7347,268.47485,1344.3082L255.15854,1325.1478 Z"/> </g> <g style="fill:rgb(255,255,255); fill-opacity:1.0; stroke-linejoin: miter"> <path d="M93.03718,1311.0917L79.34957,1314.8397L65.66207,1318.5873Q71.188675,1320.2987,76.71559,1322.0111Q76.98713,1327.7474,77.25869,1333.4847L93.03718,1311.0917 Z"/> </g> <g style="fill:rgb(255,255,255); fill-opacity:1.0; stroke-linejoin: miter"> <path d="M79.13101,1308.3947L78.17149,1307.0084L77.21202,1305.6215Q77.11487,1314.014,77.017555,1322.4073Q84.7326,1324.9813,92.44726,1327.5546L79.13101,1308.3947 Z"/> </g> <g style="fill:rgb(255,255,255); fill-opacity:1.0; stroke-linejoin: miter"> <path d="M397.49393,1337.2417L406.81152,1339.6838L416.12936,1342.1257Q413.46146,1339.2439,410.79373,1336.3616Q412.58105,1332.898,414.36813,1329.4336L397.49393,1337.2417 Z"/> </g> <g style="fill:rgb(255,255,255); fill-opacity:1.0; stroke-linejoin: miter"> <path d="M404.75293,1343.5459L404.8463,1344.6868L404.93967,1345.8276Q407.84488,1340.9272,410.75067,1336.0264Q407.08902,1331.8958,403.42767,1327.7644L404.75293,1343.5459 Z"/> </g> <g style="fill:rgb(255,255,255); fill-opacity:1.0; stroke-linejoin: miter"> <path d="M250.59412,1293.0985L259.91205,1295.5411L269.22946,1297.9825Q266.56192,1295.101,263.8942,1292.2186Q265.6813,1288.7545,267.4685,1285.2904L250.59412,1293.0985 Z"/> </g> <g style="fill:rgb(255,255,255); fill-opacity:1.0; stroke-linejoin: miter"> <path d="M257.85312,1299.403L257.94666,1300.5438L258.03986,1301.6842Q260.94534,1296.7843,263.8508,1291.8837Q260.18942,1287.7521,256.52798,1283.6217L257.85312,1299.403 Z"/> </g> <g style="fill:rgb(255,255,255); fill-opacity:1.0; stroke-linejoin: miter"> <path d="M398.8211,1385.0803L413.01242,1385.0027L427.2037,1384.9253Q422.30823,1381.8413,417.41275,1378.7576Q418.63516,1373.146,419.8578,1367.5344L398.8211,1385.0803 Z"/> </g> <g style="fill:rgb(255,255,255); fill-opacity:1.0; stroke-linejoin: miter"> <path d="M411.55545,1391.2847L412.12338,1392.8723L412.69128,1394.4602Q414.95734,1386.3782,417.22348,1378.2964Q410.43787,1373.814,403.65173,1369.331L411.55545,1391.2847 Z"/> </g> <g style="fill:rgb(255,255,255); fill-opacity:1.0; stroke-linejoin: miter"> <path d="M710.18524,1185.528L710.18524,1185.5287L722.0731,1185.2125L722.37915,1196.7848L710.4915,1197.0997 Z"/> </g> <g style="fill:rgb(18,145,151); fill-opacity:1.0; stroke-linejoin: miter"> <path d="M759.3219,1083.708C759.0998,1193.0488,670.28284,1281.5043,560.9439,1281.2838C451.60468,1281.0627,363.1477,1192.2472,363.36893,1082.9075C363.58978,973.56793,452.40515,885.10913,561.7445,885.3306C671.08417,885.55133,759.54376,974.3684,759.3219,1083.708 Z"/> </g> <g style="fill:rgb(148,224,92); fill-opacity:1.0; stroke-linejoin: miter"> <path d="M665.349,996.35944C665.349,996.35944,622.6426,1005.10016,607.37506,996.8713C607.37506,996.8713,597.20154,983.6194,568.49695,994.9091C568.49695,994.9091,518.1069,1025.0529,517.3869,1055.3136C517.3869,1055.3136,503.25366,1115.1754,556.131,1123.4708C556.131,1123.4708,611.60736,1105.307,618.5727,1126.7511C618.5727,1126.7511,620.43634,1153.235,625.5291,1158.9154C625.5291,1158.9154,633.77966,1171.1095,633.13226,1178.4657C633.13226,1178.4657,627.335,1203.0343,634.9618,1221.9738C634.9618,1221.9738,640.0136,1238.3705,639.3702,1243.4127C639.3702,1243.4127,687.84674,1229.6351,703.22327,1184.2843C703.22327,1184.2843,712.2149,1152.7858,712.8642,1144.5886C712.8642,1144.5886,725.67694,1108.0544,728.8914,1096.7175C728.8914,1096.7175,740.4339,1062.6951,721.2969,1067.0796C721.2969,1067.0796,707.9322,1054.437,698.40344,1044.9583C688.8541,1035.4841,670.45074,999.5192,665.349,996.35944 Z"/> </g> <g style="fill:rgb(148,224,92); fill-opacity:1.0; stroke-linejoin: miter"> <path d="M707.9519,1043.7275L654.51843,994.4438C654.51843,994.4438,666.0122,984.3844,662.20483,978.71173C658.3984,973.021,650.0947,980.5707,643.0794,980.5567C636.0818,980.5418,626.5102,986.1941,622.6961,981.13654C618.8828,976.0851,616.3346,977.3415,612.4972,980.494C608.6676,983.6362,601.64813,988.6707,601.01434,985.5083C600.3879,982.3565,588.9114,983.60046,588.28485,980.4447C587.65906,977.2891,590.20374,968.4723,584.46954,970.34973C578.7523,972.2213,570.44006,978.52594,569.1608,981.6671C567.8832,984.81866,563.41174,994.2586,558.93634,994.2497C554.4737,994.24066,543.001,996.7397,541.09625,992.95233C539.1911,989.1662,535.39307,976.54236,539.23065,972.78C543.056,968.9991,561.7545,973.03937,560.8932,968.4131C560.0436,963.79285,557.85736,953.6425,560.6715,952.20374C563.4981,950.7767,571.16174,934.39496,576.27466,932.51544C581.36346,930.6367,594.7398,937.5969,596.6666,933.1853C596.6666,933.1853,597.3259,919.9487,594.77936,918.05005C592.23096,916.15076,590.3188,910.48865,585.88916,911.0889C581.40137,911.7128,579.48584,916.1299,582.67334,918.02606C585.8715,919.9215,588.3906,927.4924,586.4781,927.4882C584.5478,927.4846,567.354,928.71063,566.7239,924.3043C566.08765,919.8875,568.6616,909.1714,574.39233,905.40515C580.16046,901.64124,592.2528,902.28723,596.07324,904.18854C599.906,906.0853,604.36395,902.3116,605.6553,899.1649C606.9223,896.02386,587.5616,885.4286,581.82007,885.41815C581.82007,885.41815,732.824,896.9948,758.43414,1051.4548C758.43414,1051.4548,742.45807,998.4108,731.62976,995.2391C731.62976,995.2391,725.8854,999.01056,722.06274,998.37006C718.24005,997.72894,699.1497,985.70844,697.8698,988.86664C696.57874,992.0135,706.7566,1002.7491,717.61035,1004.02496C728.41675,1005.3144,729.0661,1006.57635,729.67645,1012.25397C730.30994,1017.9207,732.2035,1026.7578,730.93085,1032.4187C729.6302,1038.0884,721.9526,1055.0979,707.9519,1043.7275 Z"/> </g> <g style="fill:rgb(148,224,92); fill-opacity:1.0; stroke-linejoin: miter"> <path d="M550.1333,931.2045C550.1333,931.2045,545.0419,934.344,542.4749,938.74207C539.909,943.1514,539.9015,946.9352,539.9015,946.9352C539.9015,946.9352,543.1363,948.8242,546.39655,948.84216C549.67035,948.85956,558.39087,945.72186,558.3995,941.3066C558.4084,936.89075,550.1333,931.2045,550.1333,931.2045 Z"/> </g> <g style="fill:rgb(148,224,92); fill-opacity:1.0; stroke-linejoin: miter"> <path d="M542.5664,893.3602C542.5664,893.3602,527.23254,911.6113,519.58734,913.48926C511.92865,915.36633,499.1776,921.6358,495.99207,924.16235C492.79623,926.6778,481.9727,922.2445,488.35193,917.21405C494.74432,912.1728,511.9583,900.85754,508.14764,899.60046C504.32635,898.3379,487.0942,910.2858,480.0802,915.3078C473.0486,920.33765,467.3031,927.87396,464.12524,932.91534C460.91284,937.9531,461.53165,951.19183,454.52267,953.6995C447.48492,956.2068,416.8785,968.7491,406.67783,977.5605C396.46005,986.3604,385.466,992.8504,380.9723,1001.66766C376.50256,1010.4858,383.257,987.58356,387.21667,979.1367C387.21667,979.1367,414.4149,930.9261,476.28998,900.7847C476.27917,900.79254,523.4541,888.9172,542.5664,893.3602 Z"/> </g> <g style="fill:rgb(148,224,92); fill-opacity:1.0; stroke-linejoin: miter"> <path d="M363.69498,1114.8918C363.69498,1114.8918,357.3817,1080.8337,364.3919,1077.6997C371.40048,1074.5642,373.52142,1073.8999,379.69443,1080.2527C385.83374,1086.6003,394.2996,1097.302,397.46793,1102.9844C400.67108,1108.6567,412.12427,1115.6123,412.1151,1120.0222C412.10623,1124.438,409.52786,1135.1545,412.07455,1140.1964C414.59695,1145.2465,418.4211,1145.8866,424.16364,1148.42C429.8951,1150.9469,440.72028,1154.7472,447.0671,1160.4427C453.42563,1166.1324,462.35056,1173.0773,460.417,1180.6385C458.4846,1188.2003,454.64258,1199.5347,455.90704,1203.9414C457.17023,1208.3596,461.61905,1215.9299,456.52176,1219.0791C451.4069,1222.22,447.58878,1221.5906,448.21844,1227.25C448.85233,1232.9287,455.2038,1250.5771,457.10336,1253.731C457.10077,1253.7285,377.715,1219.7537,363.69498,1114.8918 Z"/> </g> <g style="fill:rgb(171,193,206); fill-opacity:1.0; stroke-linejoin: miter"> <path d="M671.2558,1375.9081L671.2558,1375.909Q652.4452,1392.8964,637.8619,1407.951Q643.40027,1403.1005,648.907,1397.7982Q654.41376,1392.4967,659.88873,1386.7396L671.2558,1375.9081"/> </g> <g style="fill:rgb(255,206,84); fill-opacity:1.0; stroke-linejoin: miter"> <path d="M639.24817,1405.6085C640.63165,1401.9435,642.43024,1397.2843,644.43604,1392.4591C651.98517,1374.2528,655.90466,1368.8419,657.57715,1367.2372C660.0803,1364.8226,663.15704,1363.222,666.47516,1362.6005L667.62305,1362.3844L680.6721,1349.6796L695.6607,1367.6752L683.5238,1378.8632L683.2521,1380.0304C682.51,1383.3226,680.78784,1386.3358,678.2845,1388.7567C676.6121,1390.3553,671.06067,1394.0763,652.58563,1400.9208C647.68274,1402.735,642.95184,1404.3658,639.24817,1405.6085 Z"/> </g> <g style="fill:rgb(246,187,66); fill-opacity:1.0; stroke-linejoin: miter"> <path d="M680.97314,1344.0123L665.7665,1358.8107C661.8688,1359.5404,658.0617,1361.4213,654.90137,1364.4633C646.8267,1372.235,632.88074,1411.7319,632.88074,1411.7319C632.88074,1411.7319,672.8748,1399.3085,680.96075,1391.5309C684.10986,1388.494,686.1405,1384.7565,687.0181,1380.8834L700.9646,1368.0253L680.97314,1344.0123 Z M681.7933,1375.2125L680.02966,1376.8434L679.4981,1379.1827C678.91705,1381.7369,677.5702,1384.089,675.6092,1385.9764C674.9631,1386.598,670.7411,1390.0787,651.2741,1397.2948C649.4152,1397.9781,647.5909,1398.6395,645.8355,1399.257C646.525,1397.5267,647.25024,1395.7289,648.0099,1393.9083C655.9628,1374.7252,659.596,1370.639,660.2533,1370.0172C662.2145,1368.1244,664.6166,1366.8734,667.1845,1366.3961L669.4798,1365.9647L671.15283,1364.338L680.3715,1355.3531L690.34546,1367.3253L681.7933,1375.2125 Z"/> </g> <g style="fill:rgb(255,0,10); fill-opacity:1.0; stroke-linejoin: miter"> <path d="M705.89215,1381.6122C708.0735,1380.6403,710.2562,1379.6053,712.4282,1378.5204L757.0377,1347.9274C758.8697,1346.2804,760.67957,1344.5939,762.46735,1342.8844C763.4942,1341.8851,764.52106,1340.8854,765.5257,1339.8741C764.9735,1359.9227,755.36316,1381.6847,737.5756,1398.8114C731.647,1404.5128,725.24835,1409.2881,718.5966,1413.1187C718.5507,1413.1458,718.287,1413.2942,718.287,1413.2942C716.8117,1414.0586,714.948,1413.802,713.73785,1412.5447C713.33813,1412.1235,713.05286,1411.637,712.88153,1411.1245C712.88153,1411.1245,712.7533,1410.72,712.7228,1410.5437L705.3208,1381.8615C705.51544,1381.7802,705.6983,1381.6932,705.89215,1381.6122 Z"/> </g> <g style="fill:rgb(255,0,10); fill-opacity:1.0; stroke-linejoin: miter"> <path d="M710.54205,1282.7335C709.4927,1283.704,708.455,1284.6925,707.417,1285.6857C705.6402,1287.4012,703.88586,1289.1449,702.1761,1290.9132C694.4473,1291.8527,669.8914,1334.3287,669.8914,1334.3287C668.72974,1336.4579,667.6136,1338.5941,666.55347,1340.7421C666.4593,1340.9271,666.3762,1341.1127,666.28235,1341.2975L637.8972,1332.8065C637.72797,1332.7692,637.3233,1332.6254,637.3233,1332.6254C636.81757,1332.4344,636.3474,1332.1315,635.9366,1331.7101C634.72644,1330.4528,634.5468,1328.5865,635.3674,1327.1356C635.3674,1327.1356,635.5193,1326.8837,635.55414,1326.839C639.62994,1320.338,644.6404,1314.1263,650.56946,1308.4196C668.36865,1291.2872,690.48065,1282.5145,710.54205,1282.7335 Z"/> </g> <g style="fill:rgb(255,255,255); fill-opacity:1.0; stroke-linejoin: miter"> <path d="M706.72205,1282.9437C684.4235,1304.4115,668.1679,1329.1095,658.9102,1353.1595C658.4204,1354.5092,658.68506,1356.0653,659.7511,1357.1674L689.20807,1387.7816C690.2741,1388.8778,691.8189,1389.2074,693.18604,1388.7694C717.57764,1380.4364,742.8718,1365.14,765.1701,1343.672C799.822,1310.3286,819.68896,1269.6768,821.78314,1234.727C821.84827,1233.6865,821.4966,1232.5303,820.71924,1231.717C819.9308,1230.9038,818.7949,1230.5088,817.74133,1230.5339C782.73773,1231.2927,741.36285,1249.6002,706.72205,1282.9437 Z"/> </g> <g style="fill:rgb(67,74,84); fill-opacity:1.0; stroke-linejoin: miter"> <path d="M749.8057,1315.1035C745.6857,1315.0247,741.8454,1313.3433,738.9916,1310.3788C736.1382,1307.4083,734.60455,1303.5065,734.68286,1299.3864C734.7617,1295.2662,736.44293,1291.4254,739.40765,1288.566C742.3719,1285.7126,746.2854,1284.1794,750.39417,1284.2578C754.51465,1284.3367,758.3548,1286.0176,761.2199,1288.9822C767.1161,1295.1133,766.92944,1304.8989,760.8038,1310.7949C757.8278,1313.6487,753.926,1315.1821,749.8171,1315.1038C749.8057,1315.1035,749.8057,1315.1035,749.8057,1315.1035 Z"/> </g> <g style="fill:rgb(67,74,84); fill-opacity:1.0; stroke-linejoin: miter"> <path d="M716.4685,1347.192C712.34827,1347.1134,708.50757,1345.4381,705.6541,1342.4677C702.8,1339.5033,701.2666,1335.5951,701.3452,1331.4803C701.4237,1327.3605,703.1052,1323.514,706.07025,1320.6549C709.03467,1317.8016,712.9365,1316.268,717.05695,1316.3468C721.17755,1316.4252,725.0177,1318.1066,727.88293,1321.0712C733.77875,1327.2025,733.5919,1336.9882,727.4667,1342.8839C724.4903,1345.743,720.5889,1347.2706,716.4685,1347.192L716.4685,1347.1925 Z"/> </g> <g style="fill:rgb(96,200,255); fill-opacity:1.0; stroke-linejoin: miter"> <path d="M763.99976,1286.3123C760.4245,1282.6038,755.618,1280.5022,750.46783,1280.4038C745.3288,1280.3057,740.4461,1282.2225,736.7316,1285.7921C733.029,1289.3624,730.9216,1294.1681,730.8233,1299.3124C730.7252,1304.4628,732.64734,1309.3402,736.2115,1313.0546C739.78656,1316.7631,744.5937,1318.8589,749.7325,1318.957C754.88245,1319.0557,759.7653,1317.1448,763.47955,1313.575C771.1394,1306.2024,771.37274,1293.9724,763.99976,1286.3123 Z M758.128,1308.0151C755.82104,1310.2302,752.8453,1311.3057,749.8794,1311.2493C746.92523,1311.1926,743.98096,1310.0044,741.77185,1307.7031C737.3414,1303.1005,737.48126,1295.7767,742.0839,1291.3464C744.3795,1289.1313,747.36646,1288.0615,750.32074,1288.1179C753.2866,1288.1748,756.2191,1289.3572,758.4402,1291.6587C762.87024,1296.2612,762.7302,1303.585,758.128,1308.0151 Z"/> </g> <g style="fill:rgb(96,200,255); fill-opacity:1.0; stroke-linejoin: miter"> <path d="M717.1305,1312.4987C711.9801,1312.4003,707.1089,1314.3112,703.39417,1317.881C699.6799,1321.4503,697.5835,1326.257,697.48535,1331.4071C697.3872,1336.5519,699.2981,1341.4293,702.87366,1345.1434C706.44934,1348.8524,711.2446,1350.954,716.39484,1351.0521C721.5455,1351.1505,726.4286,1349.2338,730.1428,1345.6642C737.80225,1338.2919,738.0356,1326.0607,730.66327,1318.4015C727.0875,1314.6925,722.2811,1312.5968,717.1305,1312.4987 Z M724.7909,1340.1039C722.48395,1342.3246,719.5077,1343.3944,716.54193,1343.3378C713.58765,1343.2811,710.6433,1342.0988,708.4341,1339.7919C704.0035,1335.1891,704.1435,1327.8654,708.74646,1323.4352C711.0422,1321.2201,714.0291,1320.1503,716.9835,1320.2069C719.94916,1320.2633,722.88214,1321.4457,725.1031,1323.7474C729.53326,1328.35,729.3934,1335.6737,724.7909,1340.1039 Z"/> </g> <g style="fill:rgb(255,0,10); fill-opacity:1.0; stroke-linejoin: miter"> <path d="M808.9838,1282.9985L769.0225,1241.4885C785.75433,1234.5886,802.36926,1230.8689,817.74133,1230.5339C818.7949,1230.5088,819.9308,1230.9038,820.71924,1231.717C821.4966,1232.5303,821.84827,1233.6865,821.78314,1234.727C820.8672,1250.0867,816.51056,1266.542,808.9838,1282.9985 Z"/> </g> <g style="fill:rgb(171,193,206); fill-opacity:1.0; stroke-linejoin: miter"> <path d="M637.8263,1407.9874L637.7853,1408.029L636.9926,1408.8308Q637.16034,1408.6707,637.3961,1408.4343Q637.7553,1408.0698,637.8263,1407.9874 Z"/> </g> <g style="fill:rgb(215,237,249); fill-opacity:1.0; stroke-linejoin: miter"> <path d="M570.4758,1498.4424L570.47565,1498.4426L570.4755,1498.4426L570.4758,1498.4424"/> </g> </g> </svg>